{
  "asset": {
    "generator": "glTF-Transform v4.2.1",
    "version": "2.0"
  },
  "accessors": [
    {
      "type": "VEC3",
      "componentType": 5126,
      "count": 186,
      "max": [
        1,
        1,
        1
      ],
      "min": [
        -1,
        -1,
        -1
      ],
      "bufferView": 0,
      "byteOffset": 0
    },
    {
      "type": "VEC3",
      "componentType": 5126,
      "count": 186,
      "bufferView": 0,
      "byteOffset": 12
    },
    {
      "type": "VEC2",
      "componentType": 5126,
      "count": 186,
      "bufferView": 0,
      "byteOffset": 24
    },
    {
      "type": "SCALAR",
      "componentType": 5125,
      "count": 186,
      "bufferView": 1,
      "byteOffset": 0
    },
    {
      "type": "SCALAR",
      "componentType": 5125,
      "count": 186,
      "bufferView": 1,
      "byteOffset": 744
    },
    {
      "type": "SCALAR",
      "componentType": 5125,
      "count": 9900,
      "bufferView": 1,
      "byteOffset": 1488
    },
    {
      "type": "VEC3",
      "componentType": 5126,
      "count": 186,
      "max": [
        1,
        1,
        1
      ],
      "min": [
        -1,
        -1,
        -1
      ],
      "bufferView": 2,
      "byteOffset": 0
    },
    {
      "type": "VEC3",
      "componentType": 5126,
      "count": 186,
      "bufferView": 2,
      "byteOffset": 12
    },
    {
      "type": "VEC2",
      "componentType": 5126,
      "count": 186,
      "bufferView": 2,
      "byteOffset": 24
    },
    {
      "type": "VEC3",
      "componentType": 5126,
      "count": 9900,
      "max": [
        1.8135672807693481,
        0.32529115676879883,
        4.9522528648376465
      ],
      "min": [
        -1.8135671615600586,
        -0.2944248914718628,
        2.3744704723358154
      ],
      "bufferView": 3,
      "byteOffset": 0
    },
    {
      "type": "VEC3",
      "componentType": 5126,
      "count": 9900,
      "bufferView": 3,
      "byteOffset": 12
    },
    {
      "type": "VEC2",
      "componentType": 5126,
      "count": 9900,
      "bufferView": 3,
      "byteOffset": 24
    },
    {
      "type": "VEC4",
      "componentType": 5123,
      "count": 9900,
      "bufferView": 3,
      "byteOffset": 32
    },
    {
      "type": "VEC4",
      "componentType": 5126,
      "count": 9900,
      "bufferView": 3,
      "byteOffset": 40
    },
    {
      "type": "MAT4",
      "componentType": 5126,
      "count": 54,
      "bufferView": 4,
      "byteOffset": 0
    }
  ],
  "bufferViews": [
    {
      "buffer": 0,
      "byteOffset": 0,
      "byteLength": 5952,
      "byteStride": 32,
      "target": 34962
    },
    {
      "buffer": 0,
      "byteOffset": 5952,
      "byteLength": 41088,
      "target": 34963
    },
    {
      "buffer": 0,
      "byteOffset": 47040,
      "byteLength": 5952,
      "byteStride": 32,
      "target": 34962
    },
    {
      "buffer": 0,
      "byteOffset": 52992,
      "byteLength": 554400,
      "byteStride": 56,
      "target": 34962
    },
    {
      "buffer": 0,
      "byteOffset": 607392,
      "byteLength": 3456
    }
  ],
  "buffers": [
    {
      "uri": "buffer.bin",
      "byteLength": 610848
    }
  ],
  "materials": [
    {
      "pbrMetallicRoughness": {
        "baseColorFactor": [
          0.6038273388475408,
          0.6038273388475408,
          0.6038273388475408,
          1
        ],
        "roughnessFactor": 0.5,
        "metallicFactor": 0.5
      }
    },
    {
      "pbrMetallicRoughness": {
        "baseColorFactor": [
          0.6038273388475408,
          0.6038273388475408,
          0.6038273388475408,
          1
        ],
        "roughnessFactor": 0.5,
        "metallicFactor": 0.5
      }
    },
    {
      "pbrMetallicRoughness": {
        "baseColorFactor": [
          0.6038273388475408,
          0.6038273388475408,
          0.6038273388475408,
          1
        ],
        "roughnessFactor": 0.5,
        "metallicFactor": 0.5
      }
    }
  ],
  "meshes": [
    {
      "primitives": [
        {
          "attributes": {
            "POSITION": 0,
            "NORMAL": 1,
            "TEXCOORD_0": 2
          },
          "mode": 4,
          "material": 0,
          "indices": 3
        }
      ]
    },
    {
      "primitives": [
        {
          "attributes": {
            "POSITION": 6,
            "NORMAL": 7,
            "TEXCOORD_0": 8
          },
          "mode": 4,
          "material": 1,
          "indices": 4
        }
      ]
    },
    {
      "primitives": [
        {
          "attributes": {
            "POSITION": 9,
            "NORMAL": 10,
            "TEXCOORD_0": 11,
            "JOINTS_0": 12,
            "WEIGHTS_0": 13
          },
          "mode": 4,
          "material": 2,
          "indices": 5
        }
      ]
    }
  ],
  "cameras": [
    {
      "name": "PerspectiveCamera",
      "type": "perspective",
      "perspective": {
        "znear": 10.000000149011612,
        "zfar": 10000,
        "yfov": 0.39959649287745713,
        "aspectRatio": 1.7777777777777777
      }
    }
  ],
  "nodes": [
    {
      "name": "head_end",
      "translation": [
        0,
        0.646423876285553,
        0
      ]
    },
    {
      "name": "head",
      "translation": [
        -5.915055112382106e-10,
        0.24526706337928772,
        1.1538414668166297e-9
      ],
      "rotation": [
        -0.03185065109567925,
        1.293266335084545e-10,
        7.1902511039972105e-9,
        0.9994926393049531
      ],
      "children": [
        0
      ]
    },
    {
      "name": "neck",
      "translation": [
        0.0023722080513834953,
        0.8775953650474548,
        0.03904052451252937
      ],
      "rotation": [
        0.23579343861912236,
        0.00014984566531947013,
        -0.0056206806713006725,
        0.9717869312761591
      ],
      "children": [
        1
      ]
    },
    {
      "name": "lowerfinger.L_end",
      "translation": [
        0,
        0.029395125806331635,
        0
      ]
    },
    {
      "name": "lowerfinger.L",
      "translation": [
        -1.0710209608078003e-8,
        0.04208173602819443,
        -7.450580596923828e-9
      ],
      "rotation": [
        0.07802658550665009,
        -0.01018407850706343,
        -0.040765009939493904,
        0.9960654348304118
      ],
      "children": [
        3
      ]
    },
    {
      "name": "midfinger.L",
      "translation": [
        1.3131648302078247e-7,
        0.08919471502304077,
        2.60770320892334e-8
      ],
      "rotation": [
        0.003058999277745039,
        0.024703794825816288,
        -0.10774894690902272,
        0.9938664545522737
      ],
      "children": [
        4
      ]
    },
    {
      "name": "upfinger.L",
      "translation": [
        -0.011983748525381088,
        0.20865221321582794,
        -0.07740451395511627
      ],
      "rotation": [
        -0.13251235882205006,
        0.0037868269153398613,
        -0.11215307393407238,
        0.9848085208274112
      ],
      "children": [
        5
      ]
    },
    {
      "name": "lowerfinger2.L_end",
      "translation": [
        0,
        0.05493691563606262,
        0
      ]
    },
    {
      "name": "lowerfinger2.L",
      "translation": [
        -3.702007234096527e-8,
        0.057520076632499695,
        2.491287887096405e-8
      ],
      "rotation": [
        0.020496320103156884,
        -0.07888596551935115,
        -0.030731845832071263,
        0.9961990057003062
      ],
      "children": [
        7
      ]
    },
    {
      "name": "midfinger2.L",
      "translation": [
        -1.7834827303886414e-7,
        0.08088239282369614,
        1.955777406692505e-8
      ],
      "rotation": [
        -0.012899358655229506,
        0.005790660577834902,
        -0.0066112009287514735,
        0.9998781759887728
      ],
      "children": [
        8
      ]
    },
    {
      "name": "upfinger2.L",
      "translation": [
        -0.016470598056912422,
        0.19975817203521729,
        -0.048670340329408646
      ],
      "rotation": [
        -0.004780091298968911,
        -0.017360895708345897,
        -0.15135830504208236,
        0.9883149364053331
      ],
      "children": [
        9
      ]
    },
    {
      "name": "lowerfinger3.L_end",
      "translation": [
        0,
        0.06391217559576035,
        0
      ]
    },
    {
      "name": "lowerfinger3.L",
      "translation": [
        1.0104849934577942e-7,
        0.057267989963293076,
        -5.587935447692871e-9
      ],
      "rotation": [
        0.027595045409949413,
        -0.07900819285754274,
        -0.07771203023510345,
        0.9934571250383539
      ],
      "children": [
        11
      ]
    },
    {
      "name": "midfinger3.L",
      "translation": [
        4.563480615615845e-8,
        0.08110131323337555,
        5.587935447692871e-9
      ],
      "rotation": [
        -0.021968841129341995,
        0.005379270192780224,
        -0.00522182452663872,
        0.9997305467075804
      ],
      "children": [
        12
      ]
    },
    {
      "name": "upfinger3.L",
      "translation": [
        -0.01549987681210041,
        0.20161014795303345,
        0.0039558145217597485
      ],
      "rotation": [
        0.023353702858107703,
        -0.021670653981019854,
        -0.15478537682928953,
        0.987434288667684
      ],
      "children": [
        13
      ]
    },
    {
      "name": "lowerfinger4.L_end",
      "translation": [
        0,
        0.06576155871152878,
        0
      ]
    },
    {
      "name": "lowerfinger4.L",
      "translation": [
        1.2153759598731995e-7,
        0.054999012500047684,
        -2.9802322387695312e-8
      ],
      "rotation": [
        -0.0004096954343153144,
        -0.08886986180748262,
        -0.07190346681145895,
        0.9934444480048245
      ],
      "children": [
        15
      ]
    },
    {
      "name": "midfinger4.L",
      "translation": [
        4.6100467443466187e-8,
        0.07986237108707428,
        -4.0978193283081055e-8
      ],
      "rotation": [
        -0.006421668625810765,
        0.004101773367404583,
        -0.006707086406230693,
        0.9999484749822075
      ],
      "children": [
        16
      ]
    },
    {
      "name": "upfinger4.L",
      "translation": [
        -0.012140120379626751,
        0.19467027485370636,
        0.05887221172451973
      ],
      "rotation": [
        0.09128607033943945,
        -0.03212898213470608,
        -0.16123932547844827,
        0.9821590817096081
      ],
      "children": [
        17
      ]
    },
    {
      "name": "lowertoose.L_end",
      "translation": [
        0,
        0.054203521460294724,
        0
      ]
    },
    {
      "name": "lowertoose.L",
      "translation": [
        -2.9336661100387573e-8,
        0.09655044972896576,
        3.259629011154175e-8
      ],
      "rotation": [
        -0.22073945272374637,
        0.05650837683570849,
        -0.07592344234046297,
        0.9707298945891856
      ],
      "children": [
        19
      ]
    },
    {
      "name": "toosemid.L",
      "translation": [
        -6.51925802230835e-8,
        0.10475628823041916,
        9.313225746154785e-10
      ],
      "rotation": [
        -0.10917928932967089,
        0.11305904507420347,
        0.20436777379384913,
        0.9661942600731344
      ],
      "children": [
        20
      ]
    },
    {
      "name": "tooseup.L",
      "translation": [
        0.016183404251933098,
        0.09848401695489883,
        0.0634239986538887
      ],
      "rotation": [
        0.2623865314611388,
        -0.2040182210627186,
        -0.34769302709872485,
        0.8767208408602531
      ],
      "children": [
        21
      ]
    },
    {
      "name": "hand.L",
      "translation": [
        1.1972829838668986e-8,
        0.4798697233200073,
        -9.400107359169851e-9
      ],
      "rotation": [
        0.010900702148281287,
        0.002798366311926565,
        0.18405718818349764,
        0.9828511053645664
      ],
      "children": [
        6,
        10,
        14,
        18,
        22
      ]
    },
    {
      "name": "lowerarm.L",
      "translation": [
        5.118930346270645e-8,
        0.9386531114578247,
        -5.422748472483363e-9
      ],
      "rotation": [
        3.073533528423593e-8,
        1.292942893618426e-7,
        0.05775585254156144,
        0.998330737529993
      ],
      "children": [
        23
      ]
    },
    {
      "name": "upperarm.L",
      "translation": [
        7.610830721205275e-8,
        0.26035255193710327,
        1.552677986182971e-10
      ],
      "rotation": [
        -1.4646799881109003e-7,
        1.8646324484505929e-7,
        -0.5168158466880706,
        0.8560965953746321
      ],
      "children": [
        24
      ]
    },
    {
      "name": "KTF.L",
      "translation": [
        0.2734225392341614,
        0.7213577032089233,
        0.051367949694395065
      ],
      "rotation": [
        0.07117001996175942,
        0.059325233436351925,
        -0.6338435445420567,
        0.7678917284253022
      ],
      "children": [
        25
      ]
    },
    {
      "name": "lowerfinger.R_end",
      "translation": [
        0,
        0.029395125806331635,
        0
      ]
    },
    {
      "name": "lowerfinger.R",
      "translation": [
        -1.0803341865539551e-7,
        0.04208158701658249,
        1.1175870895385742e-8
      ],
      "rotation": [
        0.07802657049978125,
        0.010184072905202318,
        0.040765006158467676,
        0.996065436217959
      ],
      "children": [
        27
      ]
    },
    {
      "name": "midfinger.R",
      "translation": [
        4.842877388000488e-8,
        0.08919447660446167,
        -1.1175870895385742e-8
      ],
      "rotation": [
        0.0030589901788814645,
        -0.024703783503836976,
        0.10774889413152827,
        0.9938664605834269
      ],
      "children": [
        28
      ]
    },
    {
      "name": "upfinger.R",
      "translation": [
        0.011983778327703476,
        0.20865221321582794,
        -0.07740449160337448
      ],
      "rotation": [
        -0.13251235914055,
        -0.003786822500616805,
        0.11215309655822883,
        0.9848085182261745
      ],
      "children": [
        29
      ]
    },
    {
      "name": "lowerfinger2.R_end",
      "translation": [
        0,
        0.05493691563606262,
        0
      ]
    },
    {
      "name": "lowerfinger2.R",
      "translation": [
        8.242204785346985e-8,
        0.05751999840140343,
        1.0477378964424133e-9
      ],
      "rotation": [
        0.020496327501387683,
        0.07888595786987536,
        0.030731776835936756,
        0.9961990082822503
      ],
      "children": [
        31
      ]
    },
    {
      "name": "midfinger2.R",
      "translation": [
        -3.073364496231079e-8,
        0.08088240027427673,
        -1.6763806343078613e-8
      ],
      "rotation": [
        -0.012899403364813695,
        -0.005790659183590544,
        0.006611186496379313,
        0.9998781755154781
      ],
      "children": [
        32
      ]
    },
    {
      "name": "upfinger2.R",
      "translation": [
        0.01647062785923481,
        0.19975830614566803,
        -0.04867034777998924
      ],
      "rotation": [
        -0.004780047083006745,
        0.017360905098824528,
        0.15135833548869537,
        0.9883149317914676
      ],
      "children": [
        33
      ]
    },
    {
      "name": "lowerfinger3.R_end",
      "translation": [
        0,
        0.06391217559576035,
        0
      ]
    },
    {
      "name": "lowerfinger3.R",
      "translation": [
        -2.60770320892334e-8,
        0.057268138974905014,
        3.725290298461914e-9
      ],
      "rotation": [
        0.02759504735432419,
        0.07900820799018438,
        0.07771205281448412,
        0.993457122014907
      ],
      "children": [
        35
      ]
    },
    {
      "name": "midfinger3.R",
      "translation": [
        1.043081283569336e-7,
        0.0811014473438263,
        1.30385160446167e-8
      ],
      "rotation": [
        -0.021968850450742074,
        -0.005379270660444885,
        0.0052218561935504886,
        0.9997305463348244
      ],
      "children": [
        36
      ]
    },
    {
      "name": "upfinger3.R",
      "translation": [
        0.015499906614422798,
        0.20161016285419464,
        0.003955807536840439
      ],
      "rotation": [
        0.023353704672996134,
        0.02167066324926512,
        0.1547853616243625,
        0.9874342908047001
      ],
      "children": [
        37
      ]
    },
    {
      "name": "lowerfinger4.R_end",
      "translation": [
        0,
        0.06576155871152878,
        0
      ]
    },
    {
      "name": "lowerfinger4.R",
      "translation": [
        1.474982127547264e-7,
        0.05499913915991783,
        -1.862645149230957e-8
      ],
      "rotation": [
        -0.00040967467912523853,
        0.08886983848459912,
        0.07190333936148802,
        0.993444459323396
      ],
      "children": [
        39
      ]
    },
    {
      "name": "midfinger4.R",
      "translation": [
        -1.816079020500183e-8,
        0.0798623114824295,
        -2.2351741790771484e-8
      ],
      "rotation": [
        -0.006421681196329906,
        -0.004101776159880244,
        0.006707018417241209,
        0.999948475346054
      ],
      "children": [
        40
      ]
    },
    {
      "name": "upfinger4.R",
      "translation": [
        0.012140120379626751,
        0.19467030465602875,
        0.05887221172451973
      ],
      "rotation": [
        0.09128611561279248,
        0.03212897861693136,
        0.16123934135316043,
        0.9821590750140461
      ],
      "children": [
        41
      ]
    },
    {
      "name": "lowertoose.R_end",
      "translation": [
        0,
        0.054203521460294724,
        0
      ]
    },
    {
      "name": "lowertoose.R",
      "translation": [
        7.729977369308472e-8,
        0.0965505912899971,
        2.3283064365386963e-8
      ],
      "rotation": [
        -0.22073951552932053,
        -0.05650838888988573,
        0.07592347336736698,
        0.970729877195052
      ],
      "children": [
        43
      ]
    },
    {
      "name": "toosemid.R",
      "translation": [
        -1.0617077350616455e-7,
        0.10475628823041916,
        4.470348358154297e-8
      ],
      "rotation": [
        -0.10917934306792644,
        -0.1130590988247151,
        -0.20436779144418274,
        0.9661942440161978
      ],
      "children": [
        44
      ]
    },
    {
      "name": "tooseup.R",
      "translation": [
        -0.016183434054255486,
        0.09848415851593018,
        0.0634239986538887
      ],
      "rotation": [
        0.2623864713542127,
        0.20401823550193363,
        0.34769305627096836,
        0.8767208438121291
      ],
      "children": [
        45
      ]
    },
    {
      "name": "hand.R",
      "translation": [
        -7.157747461405961e-8,
        0.4798697233200073,
        -1.067420285494336e-8
      ],
      "rotation": [
        0.010900703020255947,
        -0.0027983704868364215,
        -0.18405715744371193,
        0.9828511110995566
      ],
      "children": [
        30,
        34,
        38,
        42,
        46
      ]
    },
    {
      "name": "lowerarm.R",
      "translation": [
        8.415348418111535e-9,
        0.9386531710624695,
        -1.7793695405998733e-8
      ],
      "rotation": [
        3.012587088536443e-8,
        -1.3077636806602645e-7,
        -0.057755889917900545,
        0.9983307353676804
      ],
      "children": [
        47
      ]
    },
    {
      "name": "upperarm.R",
      "translation": [
        -5.6415544236188e-8,
        0.26035261154174805,
        4.505125161813339e-10
      ],
      "rotation": [
        -1.3615169958564685e-7,
        -1.9515795747300634e-7,
        0.5168158466880707,
        0.8560965953746318
      ],
      "children": [
        48
      ]
    },
    {
      "name": "KTF.R",
      "translation": [
        -0.26223859190940857,
        0.7271717190742493,
        0.052943963557481766
      ],
      "rotation": [
        0.07238645036934861,
        -0.05783472201810482,
        0.6252598753322504,
        0.7748970479279588
      ],
      "children": [
        49
      ]
    },
    {
      "name": "chest",
      "translation": [
        1.229636836796999e-9,
        0.3039989173412323,
        -9.52326217884547e-10
      ],
      "rotation": [
        -0.04887147622304,
        -0.0013100915826604158,
        0.008811364885287559,
        0.9987653489787701
      ],
      "children": [
        2,
        26,
        50
      ]
    },
    {
      "name": "hip",
      "translation": [
        -1.8189894035458565e-11,
        0.47247183322906494,
        -6.494033755188866e-9
      ],
      "rotation": [
        -0.10024045959600283,
        -0.00020798515049741444,
        -0.0028504025561752974,
        0.9949591359485175
      ],
      "children": [
        51
      ]
    },
    {
      "name": "wiest",
      "translation": [
        -6.992958428743694e-18,
        0.11870621144771576,
        -0.03149348497390747
      ],
      "rotation": [
        0.7459233981321546,
        0.00016895718105574843,
        -0.00045231782647928083,
        0.6660315690573976
      ],
      "children": [
        52
      ]
    },
    {
      "name": "Armature",
      "translation": [
        -0.06016269326210022,
        235.0790557861328,
        8.912346839904785
      ],
      "rotation": [
        -0.7071067690849302,
        0,
        0,
        0.7071067932881648
      ],
      "scale": [
        100,
        99.99999657714586,
        99.99999657714586
      ],
      "children": [
        53
      ]
    },
    {
      "name": "Camera",
      "translation": [
        735.88916015625,
        495.8309326171875,
        692.5791015625
      ],
      "rotation": [
        -0.21255731370352135,
        0.9047969526495606,
        -0.08438930696099413,
        0.35922180853253044
      ],
      "scale": [
        100.00000262057496,
        100.00000779537326,
        99.99999511195905
      ],
      "camera": 0
    },
    {
      "name": "Cone.001",
      "translation": [
        21.864639282226562,
        479.8517150878906,
        -3.00512957572937
      ],
      "rotation": [
        -0.3390034427803499,
        0.699566243215317,
        0.2286874771008818,
        0.5859912713134467
      ],
      "scale": [
        8.288142118321165,
        9.447680443077859,
        9.78694618344746
      ],
      "mesh": 0
    },
    {
      "name": "Cone.002",
      "translation": [
        -21.47698402404785,
        479.45489501953125,
        -6.425797939300537
      ],
      "rotation": [
        -0.33900367969406564,
        -0.6995660008317,
        -0.2286875947038877,
        0.5859913802820944
      ],
      "scale": [
        -8.288142318602203,
        9.447680673663658,
        9.786946395297125
      ],
      "mesh": 1
    },
    {
      "name": "Cube",
      "translation": [
        0,
        -12.728428840637207,
        -1.8802798986434937
      ],
      "rotation": [
        -0.7071067690849301,
        0,
        0,
        0.707106793288165
      ],
      "scale": [
        100,
        99.99999999999997,
        99.99999999999997
      ],
      "mesh": 2,
      "skin": 0
    },
    {
      "name": "FBX_Root",
      "children": [
        54,
        55,
        56,
        57,
        58
      ]
    }
  ],
  "skins": [
    {
      "inverseBindMatrices": 14,
      "skeleton": 53,
      "joints": [
        53,
        52,
        51,
        2,
        1,
        26,
        25,
        24,
        23,
        6,
        5,
        4,
        10,
        9,
        8,
        14,
        13,
        12,
        18,
        17,
        16,
        22,
        21,
        20,
        50,
        49,
        48,
        47,
        30,
        29,
        28,
        34,
        33,
        32,
        38,
        37,
        36,
        42,
        41,
        40,
        46,
        45,
        44,
        0,
        3,
        7,
        11,
        15,
        19,
        27,
        31,
        35,
        39,
        43
      ]
    }
  ],
  "scenes": [
    {
      "name": "empty_1",
      "nodes": [
        59
      ]
    }
  ],
  "scene": 0
}