{
  "accessors": [
    {
      "bufferView": 2,
      "componentType": 5126,
      "count": 16645,
      "max": [
        12.766648292541504,
        12.773548126220703,
        32.43376922607422
      ],
      "min": [
        -12.791793823242188,
        -12.765891075134277,
        -17.6160945892334
      ],
      "type": "VEC3"
    },
    {
      "bufferView": 2,
      "byteOffset": 199740,
      "componentType": 5126,
      "count": 16645,
      "max": [
        0.9999982714653015,
        0.9999794363975525,
        1.0
      ],
      "min": [
        -0.999994695186615,
        -0.9999287128448486,
        -1.0
      ],
      "type": "VEC3"
    },
    {
      "bufferView": 3,
      "componentType": 5126,
      "count": 16645,
      "max": [
        0.9999970197677612,
        0.9999989867210388,
        0.9998955726623535,
        1.0
      ],
      "min": [
        -0.9999998211860657,
        -0.9999996423721313,
        -0.9999992847442627,
        -1.0
      ],
      "type": "VEC4"
    },
    {
      "bufferView": 1,
      "componentType": 5126,
      "count": 16645,
      "max": [
        0.9949989914894104,
        0.9950100183486938
      ],
      "min": [
        0.0042119999416172504,
        0.0042119999416172504
      ],
      "type": "VEC2"
    },
    {
      "bufferView": 0,
      "componentType": 5125,
      "count": 83868,
      "type": "SCALAR"
    }
  ],
  "asset": {
    "extras": {
      "author": "RomanGurd (https://sketchfab.com/RomanGurd)",
      "license": "CC-BY-4.0 (http://creativecommons.org/licenses/by/4.0/)",
      "source": "https://sketchfab.com/3d-models/cage-lamp-6b3848ec358e458c8807e51bbe0bf0b4",
      "title": "Cage Lamp"
    },
    "generator": "Sketchfab-12.68.0",
    "version": "2.0"
  },
  "bufferViews": [
    {
      "buffer": 0,
      "byteLength": 335472,
      "name": "floatBufferViews",
      "target": 34963
    },
    {
      "buffer": 0,
      "byteLength": 133160,
      "byteOffset": 335472,
      "byteStride": 8,
      "name": "floatBufferViews",
      "target": 34962
    },
    {
      "buffer": 0,
      "byteLength": 399480,
      "byteOffset": 468632,
      "byteStride": 12,
      "name": "floatBufferViews",
      "target": 34962
    },
    {
      "buffer": 0,
      "byteLength": 266320,
      "byteOffset": 868112,
      "byteStride": 16,
      "name": "floatBufferViews",
      "target": 34962
    }
  ],
  "buffers": [
    {
      "byteLength": 1134432,
      "uri": "scene.bin"
    }
  ],
  "images": [
    {
      "uri": "textures/CageCandle_lp_5_lp_default_baseColor.png"
    },
    {
      "uri": "textures/CageCandle_lp_5_lp_default_metallicRoughness.png"
    },
    {
      "uri": "textures/CageCandle_lp_5_lp_default_emissive.png"
    },
    {
      "uri": "textures/CageCandle_lp_5_lp_default_normal.png"
    }
  ],
  "materials": [
    {
      "doubleSided": true,
      "emissiveFactor": [
        1.0,
        1.0,
        1.0
      ],
      "emissiveTexture": {
        "index": 2
      },
      "name": "CageCandle_lp_5_lp_default",
      "normalTexture": {
        "index": 3
      },
      "occlusionTexture": {
        "index": 1
      },
      "pbrMetallicRoughness": {
        "baseColorTexture": {
          "index": 0
        },
        "metallicRoughnessTexture": {
          "index": 1
        }
      }
    }
  ],
  "meshes": [
    {
      "name": "CageCandle_CageCandle_lp_5_lp_default_0",
      "primitives": [
        {
          "attributes": {
            "NORMAL": 1,
            "POSITION": 0,
            "TANGENT": 2,
            "TEXCOORD_0": 3
          },
          "indices": 4,
          "material": 0,
          "mode": 4
        }
      ]
    }
  ],
  "nodes": [
    {
      "children": [
        1
      ],
      "matrix": [
        1.0,
        0.0,
        0.0,
        0.0,
        0.0,
        2.220446049250313e-16,
        -1.0,
        0.0,
        0.0,
        1.0,
        2.220446049250313e-16,
        0.0,
        0.0,
        0.0,
        0.0,
        1.0
      ],
      "name": "Sketchfab_model"
    },
    {
      "children": [
        2
      ],
      "matrix": [
        1.0,
        0.0,
        0.0,
        0.0,
        0.0,
        0.0,
        1.0,
        0.0,
        0.0,
        -1.0,
        0.0,
        0.0,
        0.0,
        0.0,
        0.0,
        1.0
      ],
      "name": "b96daa2f2f474fa88beaad16cc97f2d7.fbx"
    },
    {
      "children": [
        3
      ],
      "name": "RootNode"
    },
    {
      "children": [
        4
      ],
      "matrix": [
        1.0,
        0.0,
        0.0,
        0.0,
        0.0,
        2.220446049250313e-16,
        -1.0,
        0.0,
        0.0,
        1.0,
        2.220446049250313e-16,
        0.0,
        0.0,
        0.0,
        0.0,
        1.0
      ],
      "name": "CageCandle"
    },
    {
      "mesh": 0,
      "name": "CageCandle_CageCandle_lp_5_lp_default_0"
    }
  ],
  "samplers": [
    {
      "magFilter": 9729,
      "minFilter": 9987,
      "wrapS": 10497,
      "wrapT": 10497
    }
  ],
  "scene": 0,
  "scenes": [
    {
      "name": "Sketchfab_Scene",
      "nodes": [
        0
      ]
    }
  ],
  "textures": [
    {
      "sampler": 0,
      "source": 0
    },
    {
      "sampler": 0,
      "source": 1
    },
    {
      "sampler": 0,
      "source": 2
    },
    {
      "sampler": 0,
      "source": 3
    }
  ]
}
